<svg width="30" height="40" viewBox="0 0 30 40" fill="none" xmlns="http://www.w3.org/2000/svg">
<g clip-path="url(#clip0)">
<path d="M20.6864 20L29.2151 12.182C30.2616 11.2227 30.2616 9.66719 29.2151 8.70703L27.3196 6.96953C26.273 6.01016 24.5761 6.01016 23.5287 6.96953L15 14.7875L6.47131 6.96953C5.42472 6.01016 3.72784 6.01016 2.6804 6.96953L0.784943 8.70703C-0.261648 9.66641 -0.261648 11.2219 0.784943 12.182L9.31364 20L0.784943 27.818C-0.261648 28.7773 -0.261648 30.3328 0.784943 31.293L2.6804 33.0305C3.72699 33.9898 5.42472 33.9898 6.47131 33.0305L15 25.2125L23.5287 33.0305C24.5753 33.9898 26.273 33.9898 27.3196 33.0305L29.2151 31.293C30.2616 30.3336 30.2616 28.7781 29.2151 27.818L20.6864 20Z" fill="white"/>
</g>
<defs>
<clipPath id="clip0">
<rect width="30" height="40" fill="white"/>
</clipPath>
</defs>
</svg>
