<svg width="40" height="44" viewBox="0 0 40 44" fill="none" xmlns="http://www.w3.org/2000/svg">
<path d="M36.25 2.74304H26.25C24.1797 2.74304 22.5 4.58599 22.5 6.85753V17.8295C22.5 20.101 24.1797 21.944 26.25 21.944H32.5V27.43C32.5 30.4558 30.2578 32.9159 27.5 32.9159H26.875C25.8359 32.9159 25 33.8331 25 34.9732V39.0877C25 40.2277 25.8359 41.1449 26.875 41.1449H27.5C34.4062 41.1449 40 35.0075 40 27.43V6.85753C40 4.58599 38.3203 2.74304 36.25 2.74304ZM13.75 2.74304H3.75C1.67969 2.74304 0 4.58599 0 6.85753V17.8295C0 20.101 1.67969 21.944 3.75 21.944H10V27.43C10 30.4558 7.75781 32.9159 5 32.9159H4.375C3.33594 32.9159 2.5 33.8331 2.5 34.9732V39.0877C2.5 40.2277 3.33594 41.1449 4.375 41.1449H5C11.9062 41.1449 17.5 35.0075 17.5 27.43V6.85753C17.5 4.58599 15.8203 2.74304 13.75 2.74304Z" fill="#E63946"/>
</svg>
