<svg width="40" height="44" viewBox="0 0 40 44" fill="none" xmlns="http://www.w3.org/2000/svg">
<path d="M36.25 21.944H30V16.458C30 13.4321 32.2422 10.972 35 10.972H35.625C36.6641 10.972 37.5 10.0548 37.5 8.91477V4.80028C37.5 3.66023 36.6641 2.74304 35.625 2.74304H35C28.0938 2.74304 22.5 8.88048 22.5 16.458V37.0304C22.5 39.302 24.1797 41.1449 26.25 41.1449H36.25C38.3203 41.1449 40 39.302 40 37.0304V26.0585C40 23.7869 38.3203 21.944 36.25 21.944ZM13.75 21.944H7.5V16.458C7.5 13.4321 9.74219 10.972 12.5 10.972H13.125C14.1641 10.972 15 10.0548 15 8.91477V4.80028C15 3.66023 14.1641 2.74304 13.125 2.74304H12.5C5.59375 2.74304 0 8.88048 0 16.458V37.0304C0 39.302 1.67969 41.1449 3.75 41.1449H13.75C15.8203 41.1449 17.5 39.302 17.5 37.0304V26.0585C17.5 23.7869 15.8203 21.944 13.75 21.944Z" fill="#E63946"/>
</svg>
