<svg width="25" height="30" viewBox="0 0 25 30" fill="none" xmlns="http://www.w3.org/2000/svg">
<g clip-path="url(#clip0)">
<path d="M1.78571 27.1873C1.78571 27.9333 2.06792 28.6486 2.57025 29.1761C3.07258 29.7035 3.75388 29.9998 4.46429 29.9998H20.5357C21.2461 29.9998 21.9274 29.7035 22.4298 29.1761C22.9321 28.6486 23.2143 27.9333 23.2143 27.1873V7.49983H1.78571V27.1873ZM16.9643 12.1873C16.9643 11.9387 17.0584 11.7002 17.2258 11.5244C17.3932 11.3486 17.6203 11.2498 17.8571 11.2498C18.0939 11.2498 18.321 11.3486 18.4885 11.5244C18.6559 11.7002 18.75 11.9387 18.75 12.1873V25.3123C18.75 25.561 18.6559 25.7994 18.4885 25.9752C18.321 26.1511 18.0939 26.2498 17.8571 26.2498C17.6203 26.2498 17.3932 26.1511 17.2258 25.9752C17.0584 25.7994 16.9643 25.561 16.9643 25.3123V12.1873ZM11.6071 12.1873C11.6071 11.9387 11.7012 11.7002 11.8687 11.5244C12.0361 11.3486 12.2632 11.2498 12.5 11.2498C12.7368 11.2498 12.9639 11.3486 13.1313 11.5244C13.2988 11.7002 13.3929 11.9387 13.3929 12.1873V25.3123C13.3929 25.561 13.2988 25.7994 13.1313 25.9752C12.9639 26.1511 12.7368 26.2498 12.5 26.2498C12.2632 26.2498 12.0361 26.1511 11.8687 25.9752C11.7012 25.7994 11.6071 25.561 11.6071 25.3123V12.1873ZM6.25 12.1873C6.25 11.9387 6.34407 11.7002 6.51151 11.5244C6.67896 11.3486 6.90606 11.2498 7.14286 11.2498C7.37966 11.2498 7.60676 11.3486 7.7742 11.5244C7.94165 11.7002 8.03571 11.9387 8.03571 12.1873V25.3123C8.03571 25.561 7.94165 25.7994 7.7742 25.9752C7.60676 26.1511 7.37966 26.2498 7.14286 26.2498C6.90606 26.2498 6.67896 26.1511 6.51151 25.9752C6.34407 25.7994 6.25 25.561 6.25 25.3123V12.1873ZM24.1071 1.87483H17.4107L16.8862 0.779132C16.775 0.544882 16.6039 0.347836 16.3919 0.210162C16.18 0.0724877 15.9356 -0.000352896 15.6864 -0.000165203H9.30804C9.05936 -0.00116895 8.81545 0.0714 8.60424 0.209228C8.39304 0.347055 8.22308 0.544566 8.11384 0.779132L7.58929 1.87483H0.892857C0.656057 1.87483 0.428955 1.97361 0.261512 2.14942C0.0940686 2.32524 0 2.56369 0 2.81233L0 4.68734C0 4.93598 0.0940686 5.17443 0.261512 5.35025C0.428955 5.52606 0.656057 5.62484 0.892857 5.62484H24.1071C24.3439 5.62484 24.571 5.52606 24.7385 5.35025C24.9059 5.17443 25 4.93598 25 4.68734V2.81233C25 2.56369 24.9059 2.32524 24.7385 2.14942C24.571 1.97361 24.3439 1.87483 24.1071 1.87483Z" fill="#C4C4C4"/>
</g>
<defs>
<clipPath id="clip0">
<rect width="25" height="30" fill="white"/>
</clipPath>
</defs>
</svg>
